<svg data-name="Layer 1" xmlns="http://www.w3.org/2000/svg" width="855.332" height="676.006"><path d="M597.332 584.853h-2V366.006a5.98 5.98 0 00-2.213-4.654l1.264-1.55a7.973 7.973 0 012.949 6.204z" fill="#3f3d56"/><path d="M342.776 675.006s51.417-137.11 23.072-221.486-50.757-81.08-50.757-81.08-38.233-9.888-85.694 19.116-59.986 37.574-87.013 25.708-32.3-30.322-98.219-28.345c0 0 34.937-19.116 69.215-1.977s57.35 26.367 92.286 0 83.057-60.645 129.86-40.21c0 0-34.278-33.619-45.484-33.619s-63.941-5.273-81.08-23.071c0 0-24.39-17.14-67.896 25.049s-32.96 42.187-71.852 38.892S0 331.57 0 331.57s45.484 18.457 73.17 9.229 51.416-44.166 75.806-56.03 38.892-27.687 71.851-10.548c0 0-13.843-56.69-40.21-52.076s-84.376.66-123.268-26.367c0 0-30.982-.66-44.824 5.933 0 0 36.255-21.094 67.236-5.933s113.38 13.184 113.38 13.184-7.25-96.241-21.094-102.833-5.273-23.73-30.981-27.027c0 0 31.64-3.955 37.573 17.798s46.802 139.088 46.802 139.088 25.05 50.099 52.735 38.233-10.547-78.443-10.547-78.443l-47.461-21.753s35.596-1.318 57.35 19.116 23.07 86.354 23.07 86.354 54.713 7.91 67.897 37.573c0 0 8.569-26.367-7.91-42.188-4.12-3.955-8.446-10.835-12.618-18.93a167.202 167.202 0 01-16.345-100.715c2.455-16.865 3.967-33.355 1.277-37.24-5.933-8.57-30.982-61.305-32.96-75.148S301.907 0 301.907 0s.66 35.596 8.57 46.802 30.322 66.578 30.322 66.578 11.865-24.39 25.708-30.323 34.937-42.187 27.027-59.985c0 0 9.887 27.685 1.977 43.506s-30.322 34.277-30.322 34.277-24.39 82.399-5.933 116.676 54.053 72.51 52.076 97.56v14.502s39.55-37.574 36.914-50.098-5.933-42.188-30.982-59.986-41.528-46.143-23.73-87.013 17.798-48.12 17.798-48.12l-11.866 50.757s-6.592 45.484 11.866 61.304 42.847 44.825 42.847 44.825l-5.274-94.923s-1.318-77.784 74.488-111.402l48.12-20.435-49.438 30.982s-59.327 52.735-55.372 85.035-.659 53.394-.659 53.394 36.914-47.462 80.42-63.282 70.534-71.192 70.534-71.192l36.914-29.004-30.323 36.255s-9.228 42.847-61.304 73.17-85.694 75.147-87.671 102.832-3.956 52.076-3.956 52.076 97.56-3.296 119.313-46.143S613.7 110.743 634.796 96.9 695.44 65.92 695.44 65.92l-44.166 36.255s-9.228 29.663-7.25 50.757-14.503 40.87-14.503 40.87 45.484-15.82 70.533-46.143 54.053-58.009 54.053-58.009-34.937 52.076-34.937 54.053-21.094 22.413-18.457 34.937-40.21 27.027-40.21 27.027l-43.506 25.049-13.843 31.64s56.69 1.32 86.353 34.938S793 340.799 793 340.799l-41.529 11.206s-39.55-13.184-77.124-37.574-33.619-46.143-80.421-21.753-110.743 44.825-110.743 44.825 36.914-17.139 103.492 24.39 137.77 13.843 137.77 13.843-15.82 30.322-49.44 32.3-121.29-53.394-150.953-37.574-43.506-3.955-55.371 35.596-33.619 147.658-8.57 208.303l25.05 60.645z" fill="#3f3d56"/><path d="M590.97 238.625c-17.672 34.81-85.38 43.515-110.159 45.556-.695 8.936-1.153 14.587-1.153 14.587s97.56-3.296 119.313-46.143S622.7 124.743 643.795 110.9a174.24 174.24 0 017.267-4.491c.724-2.66 1.213-4.235 1.213-4.235l44.166-36.255S656.89 83.057 635.796 96.9s-23.072 98.878-44.825 141.725zM650.777 184.997a75.568 75.568 0 01-12.255 22.804s39.605-13.779 65.254-40.26c4.984-10.937 16.395-22.384 16.395-23.839 0-1.977 34.937-54.053 34.937-54.053s-29.004 27.686-54.053 58.009c-14.196 17.185-34.954 29.71-50.278 37.339zM412.332 196.437c-.455-.39-.89-.803-1.316-1.227 1.982 6.073 4.946 11.482 9.316 15.227 18.457 15.82 42.847 44.825 42.847 44.825l-5.274-94.923s-.87-51.724 39.917-89.045a317.188 317.188 0 0125.253-25.81l49.439-30.982-48.12 20.435c-75.807 33.618-74.489 111.402-74.489 111.402l5.274 94.923s-24.39-29.004-42.847-44.825z" opacity=".1"/><path d="M477.294 172.03c-.143 16.23-2.25 25.883-2.25 25.883s36.899-47.441 80.393-63.272a249.625 249.625 0 017.848-4.781c52.076-30.323 61.304-73.17 61.304-73.17l30.323-36.255-36.915 29.004s-27.026 55.371-70.532 71.192c-29.656 10.784-56.244 36.265-70.17 51.4zM420.332 329.09v14.503s39.55-37.574 36.914-50.098c-2.016-9.579-4.43-29.177-16.653-45.83 5.51 12.585 7.186 24.86 8.653 31.83 1.89 8.98-17.911 30.842-29.268 42.493a30.06 30.06 0 01.354 7.103zM367.277 229.57c.314.668.637 1.325.979 1.961 10.108 18.773 25.348 38.728 36.75 57.058-9.215-18.152-25.252-38.91-37.729-59.02zM587.675 361.893c-21.685-13.526-40.22-20.825-55.36-24.523-15.882 5.978-28.954 10.435-35.531 12.623 11.796-3.053 45.971-7.11 98.89 25.9 41.521 25.899 84.834 24.878 111.557 20.441a69.066 69.066 0 0018.214-20.598s-71.192 27.685-137.77-13.843zM399.414 201.506c-5.315-13.025-6.191-28.523-.084-46.683a142.461 142.461 0 011.136-19.69l10.38-44.401c-1.914 6.403-6.292 18.756-16.312 41.764-12.685 29.129-7.951 51.89 4.88 69.01zM690.508 297.293c-20.572-23.315-54.136-31.093-72.782-33.672l-5.571 12.735s56.69 1.318 86.353 34.937c16.45 18.643 46.477 29.985 69.968 36.393L794 340.8s-73.829-9.888-103.492-43.506zM287.176 288.221c27.686-11.865-10.547-78.443-10.547-78.443l-1.046-.48c9.532 20.111 23.356 56.453 3.593 64.923-18.492 7.925-35.806-11.792-45.267-25.762l.532 1.53s25.05 50.097 52.735 38.232zM377.485 331.068s8.342-25.715-7.33-41.591c3.843 13.677-.67 27.591-.67 27.591-10.199-22.947-45.243-32.874-60.593-36.194.596 7.64.696 12.62.696 12.62s54.713 7.91 67.897 37.574zM410.846 90.732c1.485-4.97 1.486-6.356 1.486-6.356zM81.77 354.925c.132-.043.267-.082.4-.126 27.685-9.229 51.416-44.166 75.806-56.03s38.892-27.687 71.851-10.548c0 0-5.766-23.602-16.94-39.109a153.787 153.787 0 018.94 25.11c-32.96-17.14-47.461-1.32-71.851 10.546s-48.12 46.802-75.806 56.03S1 331.57 1 331.57s30.322 19.117 69.214 22.413c4.45.377 8.246.71 11.556.942zM58.35 195.778a125.866 125.866 0 0016.052 9.405 53.023 53.023 0 0114.36 4.595c19.931 9.754 61.14 12.414 88.002 13.07a91.991 91.991 0 004.853-.703 17.269 17.269 0 019.254.898c6.98.021 11.27-.081 11.27-.081s-7.25-96.241-21.094-102.833c-.104-.05-.196-.106-.298-.157 8.818 28.287 13.392 88.99 13.392 88.99s-82.398 1.977-113.38-13.184-67.236 5.933-67.236 5.933c13.842-6.592 44.824-5.933 44.824-5.933zM356.592 675.006c12.078-37.026 41.125-139.411 18.256-207.486-9.876-29.4-19.03-48.146-26.769-60.106 5.787 11.322 12.115 26.297 18.769 46.106 28.345 84.375-23.072 221.486-23.072 221.486zM99.162 394.222a67.29 67.29 0 0123.218 6.72c27.071 13.535 47.157 22.12 71.614 12.15 5.572-2.943 11.804-6.585 18.99-10.921.56-.41 1.116-.802 1.682-1.23 34.937-26.367 83.057-60.644 129.86-40.21 0 0-9.46-9.274-20.063-18.08-42.897-10.524-85.857 20.185-117.797 44.29-34.937 26.368-58.008 17.14-92.286 0s-69.215 1.978-69.215 1.978c25.47-.764 41.881 1.524 53.997 5.303zM166.071 99.73a17.244 17.244 0 002.71 3.465 19.454 19.454 0 00-2.71-3.465zM286.517 207.141a32.094 32.094 0 012.858 3.081c-2.888-6.941-6.454-12.943-10.858-17.08-21.753-20.435-57.35-19.117-57.35-19.117l44.642 20.46a63.75 63.75 0 0120.708 12.656zM333.889 117.994c2.69 3.886 1.178 20.376-1.278 37.241a167.203 167.203 0 0016.346 100.714 117.302 117.302 0 007.024 12.058 167.362 167.362 0 01-15.37-98.772c2.456-16.865 3.968-33.355 1.278-37.24-5.933-8.57-30.982-61.305-32.96-75.148a95.931 95.931 0 01-.413-16.175C303.396 26.144 302.906 0 302.906 0s-3.954 29.004-1.977 42.847 27.027 66.578 32.96 75.147zM349.799 127.38s6.387-13.117 15.252-22.452c.704-2.605 1.138-4.073 1.138-4.073S388.6 82.398 396.51 66.578c6.123-12.247 1.584-31.593-.78-39.714 3.926 18.706-15.303 50.656-28.224 56.193-11.205 4.802-21.111 21.693-24.481 27.958 3.97 9.442 6.773 16.365 6.773 16.365zM395.73 26.864a18.863 18.863 0 00-1.196-3.792s.506 1.422 1.196 3.792zM162.903 93.253c5.81.711 12.492 2.494 17.59 6.627a150.057 150.057 0 01-.854-2.98c-5.932-21.753-37.573-17.798-37.573-17.798 14.299 1.833 17.992 7.95 20.837 14.15z" opacity=".1"/><path d="M784.53 641.138c-9.83 15.076-7.137 34.251-7.137 34.251s18.633-5.268 28.464-20.345 7.137-34.25 7.137-34.25-18.633 5.267-28.464 20.344z" fill="#3f3d56"/><path d="M791.915 643.803c-.777 17.982-14.125 32.01-14.125 32.01s-12.088-15.127-11.311-33.109 14.125-32.009 14.125-32.009 12.088 15.127 11.31 33.108z" fill="#ff9f00"/><path d="M618.762 530.01s11.312-11.867 15.941-9.48-13.312 13-13.312 13z" fill="#ffb9b9"/><path d="M618.762 530.01s11.312-11.867 15.941-9.48-13.312 13-13.312 13z" opacity=".1"/><path d="M584.248 504.109s-4.159 7.453-3.07 15.488 11.039 33.818 14.422 33.36 28.443-18.925 28.443-18.925l-4.78-6.674-18.307 11.093s-2.788-39.672-16.708-34.342z" fill="#d0cde1"/><path d="M652.13 522.253l-28.54 15.677a1.36 1.36 0 01-1.998-.59l-6.992-14.613a1.824 1.824 0 01.935-2.19l23.695-12.214a1.383 1.383 0 011.813.346l11.836 11.15a1.758 1.758 0 01-.75 2.434z" fill="#2f2e41"/><path fill="#ff9f00" d="M650.225 520.094l-26.755 15.293-7.12-12.832 22.952-12.482 10.923 10.021z"/><ellipse cx="799.853" cy="627.456" rx=".394" ry=".336" transform="rotate(-50.158 594.029 755.578)" fill="#f2f2f2"/><ellipse cx="809.787" cy="640.585" rx=".263" ry=".224" transform="rotate(-50.158 603.963 768.707)" fill="#f2f2f2"/><path d="M584.248 504.109s-4.159 7.453-3.07 15.488 11.039 33.818 14.422 33.36 28.443-18.925 28.443-18.925l-4.78-6.674-18.307 11.093s-2.788-39.672-16.708-34.342z" opacity=".1"/><path d="M611.114 532.278s12.802-10.242 17.07-7.255-14.936 11.096-14.936 11.096z" fill="#ffb9b9"/><circle cx="594.044" cy="478.935" r="12.376" fill="#ffb9b9"/><path d="M636.718 565.137s13.23 1.707 12.803 9.815-10.242 41.821-10.242 41.821l-.854 13.23s.854 22.19-1.707 21.763-8.534-15.79-8.534-15.79-7.255-4.693-3.841-8.96 5.974-3.842 5.12-8.536-.426-24.324 2.135-30.299 4.052-9.27 4.052-9.27l-8.32-.545z" fill="#ffb9b9"/><path d="M636.718 565.137s13.23 1.707 12.803 9.815-10.242 41.821-10.242 41.821l-.854 13.23s.854 22.19-1.707 21.763-8.534-15.79-8.534-15.79-7.255-4.693-3.841-8.96 5.974-3.842 5.12-8.536-.426-24.324 2.135-30.299 4.052-9.27 4.052-9.27l-8.32-.545z" opacity=".1"/><path d="M637.572 567.27s12.802 2.988 14.083 11.523 7.68 33.713 7.68 33.713l6.829 15.79s10.668 19.203 5.974 18.776-11.095-9.815-13.229-9.815-8.535-2.56-8.108-4.267 3.414-6.828 3.414-6.828l-10.324-17.985a43.682 43.682 0 01-4.479-11.083c-1.06-4.212-2.267-9.372-2.267-11.046 0-2.987-8.535-4.268-8.535-4.268z" fill="#ffb9b9"/><path d="M595.751 539.96l5.974 17.07s9.389 2.56 16.217 4.693 19.63-.853 20.91 4.268-2.56 14.082-6.4 16.216-5.975 4.267-18.35.853-41.822-4.267-41.822-4.267a21.392 21.392 0 01-9.388 2.987c-5.548.427-6.828.854-8.535-.427s.853-1.28 1.707-4.694 1.28-2.133 5.12-5.974 6.829-15.363 8.962-19.204 3.414-11.522 3.414-11.522z" fill="#2f2e41"/><path d="M594.898 489.177a12.496 12.496 0 00-5.121 9.815c0 6.401-12.803-6.828-12.803-6.828s6.828-8.535 6.828-11.095 11.096 8.108 11.096 8.108z" fill="#ffb9b9"/><path d="M578.681 486.616s7.682 2.988 9.389 7.255 8.108 13.229 8.108 13.229 8.961 9.388 5.974 19.63-5.547 12.803-5.547 14.51-4.268 4.694-7.682 4.267-16.216-2.134-17.07-3.84-5.974-26.032-2.56-34.994a207.067 207.067 0 019.388-20.057z" fill="#d0cde1"/><path d="M597.634 479.498c2.769.657 5.487-1.107 7.756-2.857 1.288-.993 2.707-2.41 2.312-4.008-.35-1.419-2.021-2.223-2.265-3.664-.169-1.002.417-1.976.464-2.992a4.226 4.226 0 00-2.484-3.624c-1.35-.726-2.88-1.03-4.266-1.68-2.116-.992-3.876-2.782-6.136-3.356-3.089-.783-6.233.885-9.409 1.1-1.921.131-3.867-.274-5.768.041a8.234 8.234 0 00-6.597 7.774c-.025 1.358.247 2.873-.564 3.95a5.978 5.978 0 01-1.086.984c-2.823 2.283-4.105 6.098-4.251 9.773-.072 1.81.307 3.958 1.912 4.727a7.088 7.088 0 002.675.372 2.794 2.794 0 012.362 1.128c.731 1.29-.364 3.194.592 4.32.719.845 2.12.564 2.958-.156s1.362-1.757 2.158-2.527c1.547-1.498 3.841-1.77 5.961-1.997a3.024 3.024 0 001.749-.574 2.703 2.703 0 00.717-1.47 9.113 9.113 0 00.01-3.861 2.146 2.146 0 01-.048-1.223 1.734 1.734 0 01.626-.7c1.314-.988 3.616-2.425 5.324-2.153 1.895.302 3.386 2.22 5.298 2.673z" fill="#2f2e41"/><path d="M580.388 501.98s-5.12 6.827-5.12 14.935 6.4 34.993 9.814 34.993 30.726-14.936 30.726-14.936l-3.84-7.255-19.63 8.535s2.56-39.687-11.95-36.273z" fill="#d0cde1"/><path fill="#ff9f00" d="M540.332 579.006h98v19h-98z"/><path d="M589.332 599.006a8.01 8.01 0 01-8-8v-225a8 8 0 0113.05-6.204l-1.263 1.55a6 6 0 00-9.787 4.654v225a6.007 6.007 0 006 6zM49.332 674.006h806v2h-806z" fill="#3f3d56"/><ellipse cx="744.666" cy="583.003" rx="1" ry="3" transform="rotate(-38.768 499.341 771.906)" fill="#ff9f00"/><path d="M488.53 641.138c-9.83 15.076-7.137 34.251-7.137 34.251s18.633-5.268 28.464-20.345 7.137-34.25 7.137-34.25-18.633 5.267-28.464 20.344z" fill="#3f3d56"/><path d="M495.915 643.803c-.777 17.982-14.125 32.01-14.125 32.01s-12.088-15.127-11.311-33.109 14.125-32.009 14.125-32.009 12.088 15.127 11.31 33.108z" fill="#ff9f00"/><path d="M326.741 646.84c4.7 17.375 20.799 28.135 20.799 28.135s8.478-17.409 3.778-34.783-20.798-28.134-20.798-28.134-8.479 17.409-3.779 34.783z" fill="#3f3d56"/><path d="M333.648 643.107c12.896 12.554 14.472 31.854 14.472 31.854s-19.335-1.056-32.232-13.61-14.472-31.854-14.472-31.854 19.335 1.055 32.232 13.61zM290.902 172.047c-1.121 17.963-14.735 31.732-14.735 31.732s-11.797-15.355-10.676-33.318 14.736-31.733 14.736-31.733 11.796 15.355 10.675 33.319zM148.986 58.485c15.225 9.599 20.778 28.149 20.778 28.149s-19.131 2.987-34.356-6.612-20.779-28.149-20.779-28.149 19.132-2.987 34.357 6.612zM114.986 277.485c15.225 9.599 20.778 28.149 20.778 28.149s-19.131 2.987-34.356-6.612-20.779-28.149-20.779-28.149 19.132-2.987 34.357 6.612zM195.986 361.485c15.225 9.599 20.778 28.149 20.778 28.149s-19.131 2.987-34.356-6.612-20.779-28.149-20.779-28.149 19.132-2.987 34.357 6.612zM424.506 90.501c-4.592 17.403-20.623 28.263-20.623 28.263s-8.587-17.355-3.995-34.758 20.622-28.263 20.622-28.263 8.587 17.355 3.996 34.758zM569.341 104.07c-5.396 17.17-21.916 27.273-21.916 27.273s-7.77-17.736-2.373-34.906 21.916-27.273 21.916-27.273 7.77 17.736 2.373 34.907zM725.885 295.168c-9.775 15.112-28.388 20.449-28.388 20.449s-2.764-19.165 7.011-34.277 28.389-20.45 28.389-20.45 2.764 19.165-7.012 34.278z" fill="#ff9f00"/></svg>